<?xml version="1.0" standalone="no"?>
<!DOCTYPE svg PUBLIC "-//W3C//DTD SVG 20010904//EN"
 "http://www.w3.org/TR/2001/REC-SVG-20010904/DTD/svg10.dtd">
<svg version="1.0" xmlns="http://www.w3.org/2000/svg"
 width="580.000000pt" height="580.000000pt" viewBox="0 0 580.000000 580.000000"
 preserveAspectRatio="xMidYMid meet">
<metadata>
Created by potrace 1.14, written by Peter Selinger 2001-2017
</metadata>
<g transform="translate(0.000000,580.000000) scale(0.100000,-0.100000)"
fill="#000000" stroke="none">
<path d="M4620 5665 c0 -6 -28 -11 -63 -12 -77 -2 -73 -1 -187 -50 -30 -13
-57 -23 -59 -23 -2 1 -7 -2 -10 -7 -3 -4 -38 -30 -78 -56 -39 -26 -97 -76
-127 -110 -31 -34 -63 -69 -71 -78 -8 -9 -15 -20 -15 -25 0 -6 -8 -19 -18 -30
-28 -30 -62 -111 -62 -147 0 -18 -7 -43 -16 -55 -8 -12 -12 -22 -7 -22 4 0 2
-4 -6 -9 -8 -5 -16 -18 -18 -28 -2 -10 -7 -31 -10 -48 -4 -16 -7 -88 -7 -160
0 -118 2 -137 28 -210 57 -160 94 -225 166 -295 85 -81 85 -81 175 -141 69
-45 75 -52 75 -84 0 -30 -3 -33 -22 -30 -55 11 -53 27 -53 -392 0 -214 3 -393
8 -400 4 -6 18 -10 32 -8 14 1 26 -3 26 -9 6 -42 3 -546 -3 -546 -4 0 -3 -12
2 -26 6 -14 8 -29 5 -34 -3 -5 0 -12 6 -16 7 -4 9 -3 5 4 -3 6 -2 14 4 17 6 4
10 25 9 48 -1 23 -1 160 0 305 l1 262 30 0 c18 0 33 7 38 18 14 25 24 739 12
763 -8 13 -21 19 -45 19 -28 0 -35 4 -35 20 0 26 33 26 102 0 29 -11 69 -20
88 -20 24 0 39 -6 48 -20 8 -13 23 -20 45 -20 l33 0 -1 -152 c0 -84 3 -164 7
-178 8 -24 8 -24 4 3 -2 15 0 27 3 27 8 0 6 254 -3 268 -12 19 28 33 109 36
28 1 73 9 100 19 28 9 59 18 70 20 38 7 93 40 99 60 3 12 10 18 20 14 11 -4
13 -1 9 10 -4 10 -2 14 4 10 6 -4 13 -1 16 7 3 8 18 12 39 11 66 -3 133 49
159 125 6 16 14 28 19 25 4 -2 16 11 26 30 10 19 22 35 26 35 5 0 7 3 6 8 -3
9 21 52 39 70 7 7 13 10 13 5 0 -11 44 59 44 72 1 6 7 20 14 33 7 13 15 32 18
43 7 32 12 52 24 99 14 52 20 230 8 230 -4 0 -3 11 2 24 6 16 5 26 -1 28 -5 2
-11 14 -11 28 -1 14 -10 40 -20 58 -10 18 -18 37 -18 42 0 5 -5 21 -12 37 -6
15 -10 32 -10 36 1 4 -5 10 -13 13 -8 4 -15 16 -15 28 0 17 -2 18 -10 6 -8
-12 -10 -12 -10 5 0 15 -3 17 -9 7 -7 -11 -9 -11 -14 2 -4 9 -13 16 -21 16 -8
0 -18 9 -21 20 -3 11 -10 20 -15 20 -5 0 -19 18 -31 40 -13 22 -26 40 -31 40
-4 0 -8 5 -8 12 0 16 -99 108 -116 108 -9 0 -13 4 -10 9 5 7 -148 90 -179 97
-5 1 -32 9 -60 18 -27 9 -63 16 -80 16 -16 0 -36 4 -44 9 -8 6 -24 6 -38 0
-13 -5 -23 -5 -23 1 0 5 -12 5 -29 0 -19 -5 -33 -4 -40 3 -6 6 -11 7 -11 2z"/>
<path d="M3126 5412 c-2 -1 -99 -4 -217 -7 -228 -4 -245 -6 -305 -32 -22 -9
-48 -18 -59 -20 -43 -8 -60 -12 -62 -14 -2 -1 -11 -2 -20 -3 -22 -2 -256 -78
-263 -86 -3 -3 -12 -6 -20 -8 -8 -2 -17 -8 -18 -13 -2 -5 -8 -7 -13 -3 -5 3
-9 1 -9 -4 0 -5 -9 -12 -19 -15 -10 -2 -24 -14 -30 -26 -10 -17 -9 -22 5 -28
9 -3 26 -1 37 6 11 7 31 15 46 18 14 2 28 8 31 12 3 4 43 20 90 35 47 15 99
33 116 41 17 8 42 17 55 19 13 3 24 5 24 6 0 5 50 10 108 11 46 0 87 8 132 24
59 23 77 24 227 23 90 0 173 -5 185 -9 13 -5 25 -4 28 2 4 5 10 7 14 4 5 -2
37 -7 71 -10 35 -3 67 -8 71 -11 20 -12 59 -17 137 -18 45 -1 82 -4 82 -8 0
-5 14 -8 30 -8 17 0 30 -4 30 -8 0 -9 7 -10 55 -13 13 -1 22 -5 19 -10 -3 -5
4 -9 15 -9 11 0 22 -4 25 -9 5 -7 56 -22 72 -20 4 0 10 -4 14 -11 4 -6 13 -12
21 -13 8 -2 19 -6 25 -10 13 -8 31 12 28 31 -1 6 -2 16 -3 21 -1 9 -50 29 -89
36 -9 2 -17 4 -17 5 0 4 -80 20 -115 23 -14 1 -29 5 -35 8 -5 3 -20 4 -32 3
-13 0 -23 2 -23 6 0 4 -7 7 -15 8 -8 1 -22 3 -30 4 -8 1 -15 5 -15 10 0 4 -7
8 -15 8 -7 0 -19 8 -24 18 -6 9 -11 14 -11 11 0 -4 -29 0 -65 7 -36 8 -69 13
-73 13 -4 -1 -9 -1 -12 1 -19 7 -179 18 -184 12z"/>
<path d="M1839 5096 c-29 -14 -39 -25 -36 -38 3 -9 1 -18 -5 -20 -19 -7 4 -37
25 -32 34 6 67 26 67 41 0 7 3 12 8 12 19 -3 33 2 27 11 -3 5 0 8 7 5 18 -6
64 30 49 39 -6 4 -11 3 -11 -2 0 -5 -20 -6 -45 -2 -35 5 -54 2 -86 -14z"/>
<path d="M1652 4931 c-68 -23 -124 -69 -142 -115 -6 -18 -5 -26 5 -30 10 -3
12 0 8 11 -5 13 -3 14 12 5 24 -13 61 3 98 42 15 16 27 26 27 22 0 -4 6 -2 13
4 6 6 27 20 45 31 35 21 38 42 6 46 -10 2 -43 -6 -72 -16z"/>
<path d="M1385 4688 c-11 -13 -19 -26 -17 -30 1 -5 -3 -8 -8 -8 -16 0 -35 -19
-92 -90 -29 -36 -62 -75 -74 -86 -29 -28 -51 -73 -50 -104 2 -50 57 -24 106
50 8 13 25 35 38 50 12 15 22 33 22 39 0 6 4 11 8 11 4 0 16 15 27 33 10 17
27 41 37 51 17 19 22 31 19 49 0 4 4 7 11 7 6 0 8 3 5 7 -4 3 -1 13 6 21 8 11
8 14 0 9 -6 -4 -13 -2 -15 3 -2 6 -12 0 -23 -12z"/>
<path d="M3690 4403 c-2 -117 -2 -177 1 -595 0 -119 -2 -222 -6 -227 -3 -6
-21 -11 -38 -11 -18 0 -37 -4 -43 -8 -10 -7 -14 -262 -3 -262 3 0 3 -22 -1
-48 -3 -27 -3 -61 1 -75 4 -15 4 -27 0 -27 -4 0 -5 -22 -1 -50 3 -27 3 -54 0
-60 -14 -22 5 -84 28 -96 43 -21 46 -30 43 -136 -1 -57 -3 -152 -4 -213 -1
-60 -6 -116 -11 -124 -6 -10 -6 -12 2 -7 7 4 12 1 12 -8 0 -9 -6 -16 -12 -16
-10 0 -10 -2 0 -9 7 -4 12 -12 11 -17 -1 -5 -1 -16 0 -24 1 -13 3 -13 11 1 5
9 11 131 12 271 2 160 7 255 13 256 26 3 46 9 54 18 7 7 18 570 12 622 0 7
-15 12 -33 12 l-33 0 3 475 c1 279 -1 475 -7 475 -5 0 -10 -53 -11 -117z"/>
<path d="M1445 4362 c-11 -25 -12 -151 -1 -145 5 4 5 0 0 -8 -11 -18 -12 -69
-1 -91 4 -10 4 -18 0 -18 -4 0 -8 -50 -8 -111 0 -117 -4 -135 -28 -126 -31 12
-40 -21 -42 -144 -1 -106 -3 -122 -19 -131 -15 -8 -17 -8 -11 2 6 10 4 12 -7
7 -10 -3 -20 3 -28 18 -7 14 -17 22 -21 19 -4 -2 -10 0 -14 6 -4 7 -14 6 -28
-2 -26 -14 -27 -14 -38 4 -7 10 -9 10 -9 0 0 -8 -8 -5 -22 8 -20 18 -22 31
-23 118 -2 120 -9 136 -53 108 -7 -4 -20 -2 -29 6 -14 11 -16 11 -8 -1 5 -9
-4 -6 -21 6 -28 20 -44 63 -23 63 6 0 7 5 4 10 -3 6 -3 16 2 23 4 6 8 17 9 22
1 6 4 24 7 42 5 32 42 93 56 93 11 0 6 49 -7 62 -9 9 -20 7 -46 -7 l-35 -19
-20 25 c-12 13 -31 40 -43 59 -25 39 -49 61 -60 54 -5 -3 -8 1 -8 8 0 10 -2
10 -9 -1 -6 -9 -11 -10 -15 -3 -4 6 -13 9 -21 5 -8 -3 -15 -1 -15 4 0 15 -38
13 -44 -3 -3 -8 -1 -14 5 -14 6 0 8 -4 4 -9 -3 -6 3 -14 12 -20 12 -7 13 -10
4 -11 -10 0 -11 -3 -2 -14 9 -11 9 -16 0 -22 -8 -5 -10 -3 -5 7 5 10 3 9 -6
-1 -8 -9 -28 -15 -51 -15 -21 1 -40 -2 -42 -5 -15 -24 -20 -151 -10 -255 4
-33 6 -66 6 -72 -2 -33 -5 -43 -13 -43 -5 0 -7 -3 -5 -7 3 -5 1 -17 -3 -28 -7
-20 1 -41 38 -93 13 -17 20 -32 16 -32 -3 0 -2 -6 3 -12 11 -15 10 -24 -5 -61
-7 -16 -12 -31 -12 -34 0 -3 -13 -22 -29 -42 -16 -20 -37 -53 -47 -73 -16 -35
-16 -37 7 -70 13 -18 26 -35 29 -38 12 -11 29 -60 22 -64 -4 -2 -7 -20 -6 -39
1 -23 -5 -43 -17 -56 -11 -12 -17 -21 -14 -21 3 0 1 -9 -5 -21 -7 -11 -14 -18
-17 -15 -3 2 -14 -3 -24 -13 -11 -10 -30 -17 -42 -15 -34 5 -81 14 -94 19 -37
13 -113 -54 -105 -93 2 -7 -9 -33 -23 -58 -14 -24 -23 -44 -20 -44 3 0 1 -8
-4 -18 -14 -26 13 -80 65 -129 25 -24 52 -43 60 -43 7 0 14 -4 14 -8 0 -5 11
-14 24 -20 38 -17 65 -44 59 -58 -3 -8 -1 -14 5 -14 14 0 28 -46 23 -79 0 -4
-11 -7 -24 -6 -15 2 -24 -2 -24 -11 0 -7 4 -11 9 -8 4 3 8 -3 8 -14 0 -10 -11
-25 -25 -32 -14 -7 -25 -18 -25 -24 0 -6 -4 -5 -9 3 -8 13 -12 13 -27 0 -10
-8 -15 -9 -11 -2 4 6 3 14 -2 17 -5 3 -11 -1 -15 -9 -3 -8 -11 -15 -18 -14
-10 0 -10 2 0 6 6 2 12 9 12 14 0 5 -10 4 -22 -3 -13 -7 -26 -12 -29 -11 -3 1
-6 -4 -6 -11 0 -9 10 -12 29 -9 17 2 28 0 28 -7 0 -6 5 -8 10 -5 6 3 10 2 10
-3 0 -6 7 -13 16 -16 14 -5 15 -4 4 9 -11 13 -10 14 4 9 9 -3 16 -11 16 -16 0
-6 11 -3 25 6 21 14 24 14 19 1 -4 -8 -1 -15 5 -15 6 0 11 -5 11 -11 0 -7 7
-17 16 -24 16 -11 16 -12 0 -18 -11 -5 -15 -3 -10 5 5 7 3 8 -5 3 -10 -6 -10
-10 1 -22 12 -11 13 -22 4 -54 -5 -21 -14 -39 -19 -39 -5 0 -6 8 -2 18 5 13 4
14 -6 5 -10 -10 -9 -16 2 -29 12 -14 10 -19 -9 -35 -13 -10 -30 -15 -37 -12
-8 3 -15 0 -15 -7 0 -6 -4 -9 -9 -6 -5 3 -11 -3 -14 -14 -3 -11 -11 -19 -19
-18 -7 2 -12 -3 -10 -9 1 -7 -2 -14 -8 -14 -5 -1 -14 -2 -19 -3 -15 -2 -25
-16 -12 -16 7 0 10 -4 6 -9 -3 -5 -1 -12 4 -16 5 -3 7 -15 4 -28 -7 -32 -5
-57 6 -86 6 -14 13 -37 15 -51 3 -14 5 -25 6 -25 1 0 3 -24 5 -54 4 -45 10
-59 39 -87 18 -18 31 -36 27 -40 -3 -4 -1 -4 6 -1 6 4 18 0 26 -8 9 -8 23 -15
31 -15 9 0 16 -6 16 -13 0 -8 11 -20 25 -27 14 -7 25 -17 25 -22 0 -13 81 -60
114 -65 51 -8 61 -18 61 -62 0 -23 -3 -41 -8 -41 -16 0 46 -75 94 -115 27 -22
49 -45 49 -51 0 -20 22 -33 40 -24 13 7 24 4 39 -9 21 -18 22 -27 20 -139 l-2
-119 33 -48 c18 -26 45 -55 61 -63 15 -9 29 -26 32 -37 2 -12 3 -177 2 -367
-2 -322 2 -384 21 -365 12 12 11 120 0 136 -7 9 -7 12 -1 9 6 -4 11 38 12 115
3 182 10 338 16 344 3 3 2 16 -3 29 -5 13 -6 24 -2 24 4 0 6 17 6 37 -1 21 3
44 8 51 6 6 7 12 3 12 -4 0 -3 6 4 13 7 9 35 13 91 12 44 -1 80 2 80 7 0 15
46 8 66 -10 13 -12 31 -17 56 -15 22 2 42 -3 51 -12 9 -8 21 -15 27 -15 9 0
10 -11 5 -37 -13 -71 -14 -120 -1 -144 13 -26 60 -79 69 -79 3 0 20 -13 38
-30 18 -16 35 -28 37 -25 2 2 17 -10 33 -26 15 -16 36 -29 44 -29 24 0 56 20
50 30 -7 11 29 23 80 26 22 1 52 5 68 8 15 3 38 8 52 10 14 3 37 14 51 25 15
12 35 21 46 21 11 0 28 5 39 11 11 5 41 13 67 16 50 6 72 17 72 39 0 7 9 18
20 24 11 6 20 17 20 25 0 18 42 20 71 4 11 -5 36 -25 55 -44 68 -66 151 -56
194 24 16 31 42 26 85 -19 l40 -41 1 -265 c0 -220 3 -267 15 -275 43 -27 49
14 46 294 l-2 238 24 6 c19 5 29 0 44 -21 18 -25 121 -83 142 -80 6 0 27 8 47
17 21 10 46 17 57 17 27 0 90 66 121 126 22 43 39 64 87 104 20 16 54 11 74
-11 12 -14 32 -21 66 -24 51 -3 103 -19 103 -32 0 -5 17 -19 38 -33 20 -14 40
-29 44 -35 4 -5 8 -6 8 -2 0 4 9 3 19 -3 33 -17 54 14 115 175 14 39 30 75 34
81 28 40 134 87 227 101 17 2 36 6 44 9 7 2 20 -1 28 -7 11 -10 15 -8 20 9 3
12 10 22 15 22 5 0 7 4 4 8 -7 12 69 54 79 44 5 -4 5 -2 2 4 -4 7 2 14 13 17
18 5 68 74 63 88 -1 3 24 33 56 67 37 37 64 77 73 104 14 41 17 43 58 46 25 2
51 10 60 18 8 8 33 32 55 52 22 21 55 54 73 75 17 21 32 34 32 30 0 -4 8 6 19
22 10 17 30 43 45 58 14 15 26 30 26 33 0 2 8 12 18 22 60 64 92 119 92 163 0
12 6 27 14 33 16 12 110 186 101 186 -3 0 1 10 9 23 8 12 15 26 14 30 -1 21
49 134 69 155 7 7 13 17 13 21 0 11 27 8 73 -8 58 -20 94 -4 97 41 1 4 7 26
15 48 8 22 15 44 16 48 4 18 32 52 43 52 19 0 98 78 91 89 -3 6 -2 11 4 11 6
0 2 23 -8 53 -15 41 -22 132 -11 132 3 0 11 40 11 58 0 9 5 17 11 17 7 0 7 4
1 13 -5 6 -9 19 -9 27 1 16 -34 54 -58 63 -9 4 -16 11 -16 17 0 6 -4 9 -8 6
-5 -3 -15 7 -23 22 -8 15 -18 30 -23 33 -13 10 -28 129 -16 129 4 0 7 25 7 55
-1 30 -3 55 -7 55 -3 0 -7 12 -8 27 -1 15 -8 34 -16 41 -11 11 -16 11 -30 -3
-12 -12 -16 -13 -16 -3 0 10 -3 9 -10 -2 -5 -8 -10 -10 -11 -5 -3 39 -7 65
-13 95 -4 19 -9 46 -11 60 -10 55 -15 76 -24 100 -5 14 -13 39 -17 55 -10 40
-11 45 -14 48 -2 3 -8 27 -15 72 -4 22 -11 44 -16 49 -5 6 -9 23 -9 38 0 15
-4 28 -10 28 -5 0 -10 9 -10 19 0 11 -4 23 -10 26 -5 3 -10 15 -10 26 0 10 -4
19 -9 19 -5 0 -11 10 -15 23 -3 14 -13 23 -25 23 -11 0 -17 -4 -15 -8 3 -4 0
-8 -5 -8 -6 0 -11 -9 -11 -20 0 -11 4 -20 10 -20 5 0 9 -3 8 -7 -1 -5 7 -28
18 -53 10 -25 18 -48 16 -52 -1 -5 3 -8 9 -8 5 0 7 -5 4 -10 -4 -6 -2 -16 3
-23 5 -7 13 -25 17 -42 5 -16 9 -34 11 -40 4 -16 13 -55 24 -110 5 -27 12 -61
15 -75 3 -14 8 -41 10 -60 3 -19 8 -46 11 -59 21 -92 22 -474 1 -508 -4 -6 -1
-14 5 -16 10 -4 10 -6 1 -6 -7 -1 -13 -8 -13 -17 0 -8 -5 -12 -11 -8 -7 4 -7
-1 1 -16 11 -20 10 -21 -12 -9 -20 11 -22 11 -10 -4 11 -13 10 -16 -7 -22 -12
-3 -25 -4 -30 0 -5 3 -12 1 -16 -5 -4 -6 -11 -8 -16 -5 -5 4 -12 -1 -15 -9 -3
-9 -11 -13 -17 -9 -5 3 -7 1 -3 -5 3 -6 2 -13 -4 -17 -6 -3 -8 -17 -6 -30 3
-17 1 -22 -9 -19 -17 7 -29 -12 -14 -22 8 -5 9 -3 4 6 -6 9 -4 11 4 6 12 -8 7
-20 -10 -22 -5 -1 -13 -2 -19 -3 -5 0 -10 -6 -10 -12 0 -5 4 -7 10 -4 6 3 7
-1 4 -10 -6 -14 -8 -14 -20 2 -10 14 -12 14 -11 3 2 -8 7 -22 11 -30 5 -8 6
-12 1 -8 -13 12 -45 -11 -45 -32 0 -11 -6 -20 -12 -21 -7 0 -4 -4 7 -9 18 -8
18 -9 2 -9 -10 -1 -16 -4 -14 -8 3 -5 -8 -21 -24 -36 -16 -16 -29 -26 -29 -22
0 3 -10 0 -22 -7 -13 -7 -36 -13 -53 -14 -16 -1 -31 -3 -32 -4 -2 -2 -9 -3
-15 -4 -7 -1 -12 -7 -11 -14 2 -7 -1 -11 -5 -9 -12 3 -68 -56 -76 -81 -4 -12
-12 -20 -17 -17 -5 4 -9 2 -9 -2 0 -17 -243 -20 -248 -4 -2 6 -8 9 -13 5 -5
-3 -9 3 -10 13 0 10 -3 13 -6 6 -11 -29 -36 23 -45 95 -1 6 -5 12 -9 12 -4 0
-5 9 -2 20 3 12 0 20 -8 20 -7 0 -9 3 -6 7 4 3 -1 12 -11 20 -16 12 -16 13 2
6 18 -6 18 -5 0 15 -22 26 -22 26 -20 5 1 -12 -8 -17 -34 -18 -55 -3 -62 -4
-55 -14 3 -5 0 -13 -6 -17 -7 -4 -9 -3 -6 3 4 6 0 14 -9 17 -8 3 -12 2 -9 -4
3 -6 -1 -10 -10 -10 -10 0 -13 -5 -9 -12 5 -9 2 -8 -9 1 -16 12 -17 12 -11 -5
4 -14 3 -16 -4 -5 -6 8 -15 10 -23 5 -12 -6 -12 -5 -1 8 10 13 10 18 1 24 -7
4 -9 3 -6 -3 8 -12 -20 -26 -34 -17 -5 3 -9 -2 -9 -10 0 -9 -5 -16 -11 -16 -5
0 -7 4 -4 10 3 6 -1 7 -10 4 -10 -4 -12 -10 -6 -18 7 -8 1 -12 -20 -12 -19 -1
-26 2 -22 10 3 6 2 7 -3 3 -5 -5 -10 -13 -10 -18 -1 -5 -2 -13 -3 -19 0 -5 -5
-10 -11 -10 -5 0 -7 8 -4 18 5 13 4 14 -4 3 -5 -7 -16 -18 -23 -23 -11 -8 -10
-9 3 -4 18 5 39 -20 37 -46 0 -7 -4 -4 -8 6 -11 27 -37 29 -36 2 0 -11 4 -26
8 -33 4 -6 3 -14 -2 -18 -5 -3 -14 3 -20 12 -14 25 -14 7 1 -20 10 -20 10 -21
-6 -8 -9 8 -19 11 -23 7 -3 -3 -2 -6 4 -6 6 0 14 -7 17 -16 6 -14 4 -15 -9 -4
-9 7 -15 9 -14 4 4 -21 -2 -28 -11 -14 -8 12 -10 10 -10 -10 0 -20 -2 -22 -10
-10 -5 8 -10 10 -10 5 0 -6 5 -16 12 -23 9 -9 8 -13 -5 -17 -9 -4 -13 -13 -10
-22 5 -12 3 -14 -7 -8 -10 6 -12 4 -6 -11 6 -15 5 -16 -5 -7 -10 10 -16 9 -30
-3 -10 -9 -15 -22 -12 -30 3 -8 1 -14 -5 -14 -6 0 -12 5 -14 12 -8 22 -27 -2
-22 -27 3 -18 0 -25 -11 -25 -8 0 -15 5 -15 11 0 5 4 7 10 4 6 -3 7 1 4 9 -3
9 -8 16 -9 16 -10 0 -33 -64 -28 -78 3 -11 -1 -9 -11 5 -13 17 -14 27 -7 40 7
13 10 14 11 4 0 -8 3 -12 6 -8 3 3 3 11 -1 17 -5 8 -11 8 -21 -1 -12 -10 -13
-9 -8 5 5 12 2 15 -10 10 -12 -5 -13 -10 -6 -25 8 -15 7 -17 -5 -13 -8 3 -12
11 -8 17 4 6 0 8 -11 4 -9 -4 -15 -3 -11 2 3 5 -1 12 -7 15 -9 4 -8 5 2 5 47
-3 55 21 9 28 -19 2 -21 1 -9 -7 13 -8 12 -10 -2 -10 -10 0 -18 7 -18 16 0 8
-4 12 -10 9 -6 -3 -10 2 -10 13 0 10 -3 22 -7 26 -4 3 -8 12 -9 19 -10 62 -13
77 -23 94 -5 11 -7 23 -4 27 3 3 1 6 -5 6 -7 0 -12 13 -12 28 0 50 -69 86 -98
52 -10 -11 -11 -11 -6 -1 5 11 1 13 -19 9 -18 -4 -32 2 -51 23 -23 24 -34 28
-81 28 -30 0 -57 -5 -61 -10 -3 -5 -5 -34 -5 -64 0 -36 -5 -55 -12 -55 -9 0
-9 -2 -1 -8 8 -5 2 -16 -17 -35 -16 -16 -29 -25 -29 -20 0 4 -5 1 -10 -7 -6
-9 -10 -11 -10 -3 0 7 -7 10 -17 6 -11 -5 -14 -3 -8 6 4 8 2 17 -6 22 -11 7
-11 9 -1 9 9 0 11 7 7 20 -5 14 -2 20 10 20 9 0 13 5 9 11 -5 8 -1 8 14 0 11
-6 22 -11 24 -11 4 0 10 47 9 65 0 6 -3 117 -5 248 -3 131 -8 242 -11 248 -4
5 -3 9 2 9 13 0 2 98 -13 111 -8 6 -14 8 -14 5 0 -4 -6 -1 -13 6 -8 8 -13 38
-12 78 0 36 -4 68 -9 71 -4 4 -3 15 2 26 6 11 7 25 2 33 -4 7 -4 24 1 37 5 15
5 23 -2 23 -6 0 -6 7 1 20 6 12 7 20 1 20 -8 0 -8 21 -1 40 1 3 1 10 0 15 -1
6 -3 103 -3 216 -1 139 -5 205 -12 203 -7 -3 -9 -117 -8 -347 1 -188 2 -342 3
-342 1 0 3 -10 4 -22 2 -13 0 -23 -4 -23 -3 0 -5 -13 -4 -30 2 -25 -1 -28 -15
-21 -21 12 -52 -10 -54 -38 -1 -12 -5 -21 -9 -21 -5 0 -5 -8 -1 -17 10 -21 9
-65 -1 -82 -4 -6 -3 -11 2 -11 10 0 9 -30 -1 -47 -4 -6 -3 -14 3 -18 7 -4 7
-13 -1 -26 -7 -15 -7 -24 1 -34 8 -9 8 -15 0 -20 -6 -4 -7 -12 -1 -23 6 -11 6
-24 0 -35 -6 -9 -6 -17 -2 -17 5 0 9 -56 9 -124 0 -68 4 -131 7 -140 4 -9 17
-16 32 -16 14 0 26 -6 26 -12 6 -64 4 -128 -4 -128 -5 0 -4 -7 3 -15 11 -13
10 -14 -4 -9 -9 4 -16 1 -16 -6 0 -10 -3 -10 -15 0 -9 7 -15 8 -15 2 0 -6 -8
-9 -17 -7 -10 1 -30 -6 -45 -16 -14 -11 -31 -19 -37 -19 -6 0 -11 -4 -11 -10
0 -5 -7 -7 -16 -3 -9 3 -20 0 -25 -8 -6 -10 -8 -9 -8 6 0 11 -2 44 -3 73 -2
28 -1 52 2 52 8 0 4 285 -4 298 -4 7 -16 12 -26 12 -29 0 -38 27 -36 103 1 37
-1 67 -4 67 -9 0 -5 75 5 82 6 5 5 8 -4 8 -10 0 -11 3 -2 13 6 8 9 16 6 18 -2
3 -5 21 -7 42 -1 24 -5 34 -12 27 -12 -12 -15 -175 -4 -207 4 -13 4 -23 0 -23
-4 0 -6 -27 -5 -60 1 -56 -1 -60 -21 -60 -12 0 -30 -6 -40 -13 -19 -14 -42
-92 -23 -80 6 4 7 1 2 -7 -5 -8 -9 -118 -10 -245 -1 -127 -5 -236 -9 -243 -9
-15 -36 -15 -57 1 -21 16 -41 55 -31 61 6 4 8 35 3 66 -1 3 -10 6 -21 7 -13 1
-18 -2 -13 -10 5 -9 3 -9 -8 -1 -8 6 -22 10 -32 9 -9 -2 -15 1 -11 6 3 5 1 9
-5 9 -5 0 -8 12 -6 28 2 15 0 31 -3 36 -16 27 8 114 28 101 16 -10 24 19 26
85 3 111 5 265 3 275 0 6 -1 19 0 30 1 13 -8 24 -28 33 -31 14 -32 17 -30 92
1 25 1 52 0 60 -3 39 0 143 5 151 3 5 0 9 -6 9 -6 0 -8 5 -5 10 3 6 0 10 -7
10 -10 0 -14 -28 -15 -113 -4 -139 -4 -139 -18 -133 -7 2 -18 -1 -25 -7 -10
-9 -11 -9 -6 0 3 7 -2 14 -14 18 -11 3 -20 11 -20 16 0 6 -4 8 -9 5 -15 -10
-71 118 -72 166 -1 49 15 98 32 98 7 0 9 3 6 7 -4 3 0 11 9 17 8 6 16 21 17
34 0 12 5 22 9 22 4 0 5 7 1 16 -6 15 -9 37 -12 77 0 10 -5 15 -11 12 -5 -3
-11 4 -11 17 -1 23 -4 37 -9 51 -1 4 -3 10 -4 15 -3 13 -29 56 -43 70 -7 8
-11 18 -8 23 4 5 2 9 -2 9 -5 0 -10 12 -11 28 -1 15 -7 29 -12 30 -6 2 -8 8
-4 13 3 5 0 9 -6 9 -6 0 -9 4 -6 9 3 5 -15 16 -41 25 -56 19 -56 19 -47 4 5
-7 3 -8 -7 -3 -7 5 -30 9 -51 9 -33 1 -39 -3 -49 -29 -7 -16 -13 -39 -14 -50
-3 -35 -17 -69 -34 -85 -9 -8 -17 -21 -19 -28 -7 -36 -9 -73 -3 -76 12 -8 4
-97 -9 -109 -10 -9 -11 -9 -5 3 7 12 6 13 -7 3 -8 -7 -18 -10 -21 -6 -4 3 -7
2 -7 -4 0 -6 -7 -14 -16 -17 -10 -4 -13 -2 -8 7 5 7 0 5 -11 -3 -14 -11 -19
-12 -22 -3 -4 10 -10 10 -25 2 -18 -10 -20 -9 -15 5 3 8 2 18 -4 21 -5 4 -7
11 -3 16 3 5 0 17 -8 26 -9 12 -9 15 0 9 6 -4 12 -3 12 2 0 6 -7 13 -16 16 -8
3 -12 2 -9 -3 3 -5 1 -12 -5 -16 -7 -4 -7 -12 0 -24 5 -10 6 -21 2 -25 -3 -4
-7 -16 -7 -28 0 -14 -8 -22 -23 -24 -15 -3 -21 0 -16 7 4 7 -2 7 -17 -1 -17
-10 -24 -10 -27 -1 -2 6 -10 11 -18 11 -9 0 -12 5 -9 10 3 6 -1 10 -9 10 -17
0 -39 34 -29 44 3 3 -2 6 -13 6 -14 0 -16 2 -5 9 7 5 9 11 3 14 -5 4 -8 21 -7
39 1 21 -6 42 -19 58 -11 14 -14 19 -6 13 22 -20 35 -15 14 5 -20 18 -25 30
-29 72 -2 14 -4 27 -5 30 -1 3 -1 10 0 15 2 6 4 62 5 126 2 101 0 116 -14 116
-58 0 -56 -2 -54 76 1 39 2 72 3 72 6 0 4 367 -1 371 -4 2 -10 -4 -14 -14z
m3698 -1522 c-3 -12 -8 -19 -11 -16 -5 6 5 36 12 36 2 0 2 -9 -1 -20z m-39
-41 c-3 -5 -10 -7 -15 -3 -5 3 -7 10 -3 15 3 5 10 7 15 3 5 -3 7 -10 3 -15z
m-1167 -368 c0 -11 -5 -18 -9 -15 -4 3 -5 11 -1 19 7 21 12 19 10 -4z m-1532
-91 c3 -5 1 -10 -4 -10 -6 0 -11 5 -11 10 0 6 2 10 4 10 3 0 8 -4 11 -10z
m1390 -110 c-3 -5 2 -10 12 -11 14 0 15 -2 3 -6 -8 -4 -21 -14 -28 -25 -16
-22 -38 -23 -46 -2 -5 14 -4 15 8 5 18 -15 40 -5 32 14 -2 7 1 18 7 24 14 14
20 14 12 1z m55 6 c0 -3 -4 -8 -10 -11 -5 -3 -10 -1 -10 4 0 6 5 11 10 11 6 0
10 -2 10 -4z m-147 -111 c4 -8 3 -16 -1 -19 -4 -3 -9 4 -9 15 -2 23 3 25 10 4z
m-13 -47 c0 -11 -12 -10 -30 2 -12 7 -10 9 8 7 12 0 22 -5 22 -9z m-25 -18 c3
-6 -1 -7 -9 -4 -18 7 -21 14 -7 14 6 0 13 -4 16 -10z"/>
<path d="M3994 4152 c4 -7 4 -12 -1 -12 -4 0 -7 -48 -6 -107 3 -127 -1 -155
-22 -147 -38 15 -43 -9 -43 -219 -1 -246 0 -254 39 -262 16 -4 30 -11 30 -16
3 -20 5 -24 13 -38 5 -8 5 -12 0 -8 -5 3 -9 -6 -9 -19 0 -13 4 -24 8 -24 5 0
5 -6 1 -12 -10 -16 -11 -57 -2 -85 4 -12 3 -25 -2 -28 -7 -4 -6 -13 0 -25 7
-13 7 -21 0 -25 -7 -5 -8 -11 -1 -19 5 -6 7 -17 3 -23 -4 -7 -7 -25 -6 -40 1
-15 3 -35 3 -43 1 -11 4 -11 13 -2 14 14 18 262 5 262 -5 0 -5 5 -1 11 3 6 6
37 5 69 -1 55 0 58 26 65 15 3 31 12 35 18 4 7 8 107 8 223 0 175 -3 214 -15
224 -8 7 -21 10 -28 7 -33 -13 -39 8 -38 141 1 90 -2 133 -10 138 -8 4 -9 3
-5 -4z"/>
<path d="M3365 3636 c1 -17 -2 -36 -7 -43 -5 -7 -5 -14 2 -18 6 -3 7 -13 2
-23 -9 -21 -9 -43 1 -59 5 -7 5 -13 0 -13 -4 0 -8 -11 -8 -24 0 -13 3 -22 8
-19 12 7 8 -12 -5 -25 -9 -9 -9 -12 1 -12 7 0 9 -5 4 -12 -10 -17 -10 -39 -1
-60 5 -9 4 -20 -2 -23 -7 -4 -7 -12 0 -25 12 -22 -17 -61 -30 -40 -5 8 -14 2
-26 -17 -18 -26 -19 -48 -19 -265 0 -130 3 -239 6 -242 15 -15 144 -25 156
-12 5 4 7 125 6 268 -2 274 -4 289 -46 266 -14 -7 -17 -7 -13 1 4 6 3 11 -2
11 -5 0 -9 21 -8 48 1 26 -2 55 -7 66 -5 10 -5 16 0 13 4 -3 8 30 8 74 0 63
-3 79 -15 79 -13 0 -13 2 -1 9 18 11 22 128 5 128 -6 0 -10 -14 -9 -31z"/>
<path d="M2410 3490 c-16 -16 -18 -24 -9 -44 7 -14 18 -23 28 -21 9 2 19 4 23
4 4 1 12 10 18 21 8 15 8 25 -2 38 -18 24 -35 25 -58 2z"/>
<path d="M3994 2549 c-3 -6 -1 -16 6 -22 10 -9 11 -9 5 2 -4 8 -2 17 6 22 9 6
10 9 2 9 -6 0 -15 -5 -19 -11z"/>
<path d="M259 2347 c-1 -6 0 -16 1 -22 1 -5 3 -15 3 -22 0 -6 6 -9 14 -6 11 4
11 8 1 21 -11 13 -10 15 5 9 22 -8 22 -5 -3 16 -14 11 -20 13 -21 4z"/>
<path d="M375 2331 c-3 -5 -1 -12 5 -16 5 -3 10 -15 10 -26 0 -10 6 -19 13
-19 9 0 9 -2 -1 -9 -8 -5 0 -7 23 -7 25 1 34 5 30 14 -3 7 0 10 5 7 6 -3 10
-1 10 5 0 6 4 9 9 5 5 -3 12 -1 15 4 4 5 2 12 -4 16 -6 4 -7 11 -4 17 4 7 2 8
-5 4 -6 -4 -8 -13 -4 -19 3 -7 -3 -3 -15 7 -14 12 -22 14 -22 7 0 -7 -5 -9
-10 -6 -6 4 -8 10 -6 14 3 4 -1 8 -8 8 -8 0 -12 -7 -8 -15 3 -10 0 -13 -9 -10
-8 3 -13 11 -11 17 3 13 -5 15 -13 2z"/>
<path d="M520 2320 c-6 -11 -8 -20 -6 -20 3 0 10 9 16 20 6 11 8 20 6 20 -3 0
-10 -9 -16 -20z"/>
<path d="M342 2257 c10 -8 14 -18 10 -22 -4 -5 -1 -5 6 -1 17 10 15 14 -10 26
-21 10 -21 10 -6 -3z"/>
<path d="M485 2239 c-4 -6 -4 -13 -1 -16 3 -4 6 -1 6 6 0 7 5 9 12 5 7 -4 8
-3 4 4 -9 15 -13 15 -21 1z"/>
<path d="M3750 2239 c0 -5 5 -7 10 -4 6 3 10 8 10 11 0 2 -4 4 -10 4 -5 0 -10
-5 -10 -11z"/>
<path d="M416 2218 c3 -4 11 -5 19 -1 21 7 19 12 -4 10 -11 0 -18 -5 -15 -9z"/>
<path d="M337 2193 c4 -11 8 -11 21 -1 9 7 13 8 10 3 -4 -6 -3 -17 1 -24 6 -9
11 -10 15 -2 4 6 3 11 -3 11 -6 0 -8 6 -5 14 4 9 -3 14 -20 14 -17 0 -23 -5
-19 -15z"/>
<path d="M3665 2199 c-3 -4 2 -6 10 -5 21 3 28 13 10 13 -9 0 -18 -4 -20 -8z"/>
<path d="M5440 932 c0 -6 -7 -9 -15 -6 -11 5 -15 -1 -15 -25 0 -36 27 -56 50
-38 21 16 20 39 -2 61 -10 11 -18 14 -18 8z"/>
<path d="M2447 409 c6 -23 9 -24 16 -5 3 8 0 17 -7 19 -10 4 -12 -1 -9 -14z"/>
<path d="M2543 344 c-19 -20 -16 -40 7 -41 15 -1 20 4 20 22 0 29 -11 37 -27
19z"/>
</g>
</svg>
